<?xml version="1.0" encoding="UTF-8" standalone="no"?>
<!-- Created with Inkscape (http://www.inkscape.org/) -->

<svg
   width="297mm"
   height="210mm"
   viewBox="0 0 297 210"
   version="1.1"
   id="svg5"
   xmlns="http://www.w3.org/2000/svg"
   xmlns:svg="http://www.w3.org/2000/svg">
  <defs
     id="defs2" />
  <g
     id="layer1">
    <g
       id="g1438"
       style="fill:none;fill-opacity:0.960784;stroke:#550000;stroke-width:1.51181">
      <path
         id="path1426"
         style="fill:#e9e9ff;fill-rule:evenodd;stroke:none;stroke-width:2.54699;stroke-linejoin:round"
         d="M 24.965969,75.431111 50.869352,43.084199 V 172.2413 l -25.903383,-3.29968 z"
         points="50.869352,43.084199 50.869352,172.2413 24.965969,168.94162 24.965969,75.431111 " />
      <path
         id="path1428"
         style="fill:#353564;fill-rule:evenodd;stroke:none;stroke-width:2.54699;stroke-linejoin:round"
         d="M 4.1804532,71.937761 V 169.29797 L 24.965969,168.94162 V 75.431111 Z"
         points="4.1804532,169.29797 24.965969,168.94162 24.965969,75.431111 4.1804532,71.937761 " />
      <path
         id="path1430"
         style="fill:#afafde;fill-rule:evenodd;stroke:none;stroke-width:2.54699;stroke-linejoin:round"
         d="M 4.1804532,169.29797 23.19899,172.93196 50.869352,172.2413 24.965969,168.94162 Z"
         points="23.19899,172.93196 50.869352,172.2413 24.965969,168.94162 4.1804532,169.29797 " />
      <path
         id="path1432"
         style="fill:#4d4d9f;fill-rule:evenodd;stroke:none;stroke-width:2.54699;stroke-linejoin:round"
         d="M 4.1804532,71.937761 23.19899,36.313595 50.869352,43.084199 24.965969,75.431111 Z"
         points="23.19899,36.313595 50.869352,43.084199 24.965969,75.431111 4.1804532,71.937761 " />
      <path
         id="path1434"
         style="fill:#b380ff;fill-rule:evenodd;stroke:none;stroke-width:2.54699;stroke-linejoin:round"
         d="M 23.19899,36.313595 V 172.93196 L 50.869352,172.2413 V 43.084199 Z"
         points="23.19899,172.93196 50.869352,172.2413 50.869352,43.084199 23.19899,36.313595 " />
      <path
         id="path1436"
         style="fill:#6600ff;fill-rule:evenodd;stroke:none;stroke-width:2.54699;stroke-linejoin:round"
         d="M 4.1804532,71.937761 23.19899,36.313595 V 172.93196 L 4.1804532,169.29797 Z"
         points="23.19899,36.313595 23.19899,172.93196 4.1804532,169.29797 4.1804532,71.937761 " />
    </g>
    <g
       id="g854"
       style="fill:none;fill-opacity:0.960784;stroke:#550000;stroke-width:1.51181">
      <path
         id="path866"
         style="fill:#e9e9ff;fill-rule:evenodd;stroke:none;stroke-width:2.54699;stroke-linejoin:round"
         d="M 75.228541,102.10328 88.658686,80.122299 v 87.767261 l -13.430145,-2.24225 z"
         points="88.658686,80.122299 88.658686,167.88956 75.228541,165.64731 75.228541,102.10328 " />
      <path
         id="path856"
         style="fill:#353564;fill-rule:evenodd;stroke:none;stroke-width:2.54699;stroke-linejoin:round"
         d="m 64.451859,99.729415 v 66.160045 l 10.776682,-0.24215 v -63.54403 z"
         points="64.451859,165.88946 75.228541,165.64731 75.228541,102.10328 64.451859,99.729415 " />
      <path
         id="path864"
         style="fill:#afafde;fill-rule:evenodd;stroke:none;stroke-width:2.54699;stroke-linejoin:round"
         d="m 64.451859,165.88946 9.860554,2.46944 14.346273,-0.46934 -13.430145,-2.24225 z"
         points="74.312413,168.3589 88.658686,167.88956 75.228541,165.64731 64.451859,165.88946 " />
      <path
         id="path858"
         style="fill:#4d4d9f;fill-rule:evenodd;stroke:none;stroke-width:2.54699;stroke-linejoin:round"
         d="M 64.451859,99.729415 74.312413,75.52141 88.658686,80.122299 75.228541,102.10328 Z"
         points="74.312413,75.52141 88.658686,80.122299 75.228541,102.10328 64.451859,99.729415 " />
      <path
         id="path862"
         style="fill:#aa87de;fill-rule:evenodd;stroke:none;stroke-width:2.54699;stroke-linejoin:round"
         d="m 74.312413,75.52141 v 92.83749 l 14.346273,-0.46934 V 80.122299 Z"
         points="74.312413,168.3589 88.658686,167.88956 88.658686,80.122299 74.312413,75.52141 " />
      <path
         id="path860"
         style="fill:#7137c8;fill-rule:evenodd;stroke:none;stroke-width:2.54699;stroke-linejoin:round"
         d="M 64.451859,99.729415 74.312413,75.52141 v 92.83749 l -9.860554,-2.46944 z"
         points="74.312413,75.52141 74.312413,168.3589 64.451859,165.88946 64.451859,99.729415 " />
    </g>
    <g
       id="g1214"
       style="fill:none;fill-opacity:0.960784;stroke:#550000;stroke-width:1.51181">
      <path
         id="path1226"
         style="fill:#e9e9ff;fill-rule:evenodd;stroke:none;stroke-linejoin:round"
         d="m 76.334586,107.18938 7.474471,-1.42406 v 24.57315 l -7.474471,0.70293 z"
         points="83.809057,105.76532 83.809057,130.33847 76.334586,131.0414 76.334586,107.18938 " />
      <path
         id="path1216"
         style="fill:#353564;fill-rule:evenodd;stroke:none;stroke-linejoin:round"
         d="m 22.557422,99.007195 v 27.995415 l 53.777164,4.03879 v -23.85202 z"
         points="22.557422,127.00261 76.334586,131.0414 76.334586,107.18938 22.557422,99.007195 " />
      <path
         id="path1218"
         style="fill:#4d4d9f;fill-rule:evenodd;stroke:none;stroke-linejoin:round"
         d="m 22.557422,99.007195 6.900804,-1.972151 54.350831,8.730276 -7.474471,1.42406 z"
         points="29.458226,97.035044 83.809057,105.76532 76.334586,107.18938 22.557422,99.007195 " />
      <path
         id="path1224"
         style="fill:#2d1650;fill-rule:evenodd;stroke:none;stroke-linejoin:round"
         d="m 22.557422,127.00261 6.900804,-0.97347 54.350831,4.30933 -7.474471,0.70293 z"
         points="29.458226,126.02914 83.809057,130.33847 76.334586,131.0414 22.557422,127.00261 " />
      <path
         id="path1222"
         style="fill:#9955ff;fill-rule:evenodd;stroke:none;stroke-linejoin:round"
         d="m 29.458226,97.035044 v 28.994096 l 54.350831,4.30933 v -24.57315 z"
         points="29.458226,126.02914 83.809057,130.33847 83.809057,105.76532 29.458226,97.035044 " />
      <path
         id="path1220"
         style="fill:#7f2aff;fill-rule:evenodd;stroke:none;stroke-linejoin:round"
         d="m 22.557422,99.007195 6.900804,-1.972151 v 28.994096 l -6.900804,0.97347 z"
         points="29.458226,97.035044 29.458226,126.02914 22.557422,127.00261 22.557422,99.007195 " />
    </g>
    <g
       id="g1484"
       style="fill:none;fill-opacity:0.960784;stroke:#550000;stroke-width:1.51181">
      <path
         id="path1496"
         style="fill:#e9e9ff;fill-rule:evenodd;stroke:none;stroke-linejoin:round"
         d="m 127.11496,87.75559 21.99338,-8.561085 v 18.906746 l -21.99338,6.867439 z"
         points="149.10834,79.194505 149.10834,98.101251 127.11496,104.96869 127.11496,87.75559 " />
      <path
         id="path1486"
         style="fill:#353564;fill-rule:evenodd;stroke:none;stroke-linejoin:round"
         d="M 89.915668,65.971156 V 87.493889 L 127.11496,104.96869 V 87.75559 Z"
         points="89.915668,87.493889 127.11496,104.96869 127.11496,87.75559 89.915668,65.971156 " />
      <path
         id="path1488"
         style="fill:#4d4d9f;fill-rule:evenodd;stroke:none;stroke-linejoin:round"
         d="M 89.915668,65.971156 113.41795,52.248502 149.10834,79.194505 127.11496,87.75559 Z"
         points="113.41795,52.248502 149.10834,79.194505 127.11496,87.75559 89.915668,65.971156 " />
      <path
         id="path1494"
         style="fill:#782167;fill-rule:evenodd;stroke:none;stroke-linejoin:round"
         d="m 89.915668,87.493889 23.502282,-11.00789 35.69039,21.615252 -21.99338,6.867439 z"
         points="113.41795,76.485999 149.10834,98.101251 127.11496,104.96869 89.915668,87.493889 " />
      <path
         id="path1492"
         style="fill:#ff55dd;fill-rule:evenodd;stroke:none;stroke-linejoin:round"
         d="m 113.41795,52.248502 v 24.237497 l 35.69039,21.615252 V 79.194505 Z"
         points="113.41795,76.485999 149.10834,98.101251 149.10834,79.194505 113.41795,52.248502 " />
      <path
         id="path1490"
         style="fill:#a02c89;fill-rule:evenodd;stroke:none;stroke-linejoin:round"
         d="M 89.915668,65.971156 113.41795,52.248502 v 24.237497 l -23.502282,11.00789 z"
         points="113.41795,52.248502 113.41795,76.485999 89.915668,87.493889 89.915668,65.971156 " />
    </g>
    <g
       id="g1470"
       style="fill:none;fill-opacity:0.960784;stroke:#550000;stroke-width:1.51181">
      <path
         id="path1482"
         style="fill:#e9e9ff;fill-rule:evenodd;stroke:none;stroke-width:1.00283;stroke-linejoin:round"
         d="m 119.18152,95.490617 14.39168,-5.620313 v 79.540436 l -14.39168,-0.4458 z"
         points="133.5732,89.870304 133.5732,169.41074 119.18152,168.96494 119.18152,95.490617 " />
      <path
         id="path1472"
         style="fill:#353564;fill-rule:evenodd;stroke:none;stroke-width:1.00283;stroke-linejoin:round"
         d="m 106.12122,89.034096 v 80.442974 l 13.0603,-0.51213 V 95.490617 Z"
         points="106.12122,169.47707 119.18152,168.96494 119.18152,95.490617 106.12122,89.034096 " />
      <path
         id="path1480"
         style="fill:#afafde;fill-rule:evenodd;stroke:none;stroke-width:1.00283;stroke-linejoin:round"
         d="m 106.12122,169.47707 14.69115,0.53858 12.76083,-0.60491 -14.39168,-0.4458 z"
         points="120.81237,170.01565 133.5732,169.41074 119.18152,168.96494 106.12122,169.47707 " />
      <path
         id="path1474"
         style="fill:#4d4d9f;fill-rule:evenodd;stroke:none;stroke-linejoin:round"
         d="m 106.12122,89.034096 14.69115,-6.790153 12.76083,7.626361 -14.39168,5.620313 z"
         points="120.81237,82.243943 133.5732,89.870304 119.18152,95.490617 106.12122,89.034096 " />
      <path
         id="path1478"
         style="fill:#ff6600;fill-rule:evenodd;stroke:none;stroke-linejoin:round"
         d="m 120.81237,82.243943 v 87.771707 l 12.76083,-0.60491 V 89.870304 Z"
         points="120.81237,170.01565 133.5732,169.41074 133.5732,89.870304 120.81237,82.243943 " />
      <path
         id="path1476"
         style="fill:#d35f5f;fill-rule:evenodd;stroke:none;stroke-linejoin:round"
         d="m 106.12122,89.034096 14.69115,-6.790153 v 87.771707 l -14.69115,-0.53858 z"
         points="120.81237,82.243943 120.81237,170.01565 106.12122,169.47707 106.12122,89.034096 " />
    </g>
    <path
       style="fill:#008000;fill-opacity:1;stroke:none;stroke-width:0.179943px;stroke-linecap:butt;stroke-linejoin:miter;stroke-opacity:1"
       d="m 137.5118,169.73022 19.59246,-74.770484 18.8898,5.808344 1.57068,17.92166 0.93422,5.81412 15.90557,-30.447309 12.75175,0.553973 9.50585,70.776426 -10.18121,0.89219 -9.35505,-48.17852 -17.45048,31.10739 -7.26807,-0.87239 -10.18242,-23.21687 -7.99658,44.68515 z"
       id="path1872" />
    <g
       aria-label="L"
       id="text14148"
       style="font-size:114.216px;line-height:1.25;fill:#ff0000;stroke-width:0.594876">
      <path
         d="m 241.35326,151.87674 25.88626,1.08466 c 1.15156,0.0482 2.02629,-0.26026 2.62117,-0.78078 0.59487,-0.52051 1.07821,-1.45 1.45001,-2.78847 h 1.78462 v 19.68664 h -1.78462 c -0.3718,-1.33847 -0.85514,-2.26796 -1.45001,-2.78848 -0.59488,-0.52051 -1.46892,-0.75364 -2.62117,-0.78077 l -41.73909,-1.15438 v -1.78462 l -0.22249,-1.69405 -0.544,-2.30741 -17.749,-77.824169 c -0.25629,-1.123717 -0.26026,-2.026294 -0.78077,-2.621169 -0.52052,-0.594875 -1.45001,-1.07821 -2.78848,-1.450007 V 74.88911 h 23.75782 v 1.784625 c -1.33847,0.334617 -2.26796,0.817952 -2.78847,1.450007 -0.52052,0.594875 -1.05982,1.502886 -0.78078,2.621169 z"
         style="font-family:'Copperplate Gothic Bold';-inkscape-font-specification:'Copperplate Gothic Bold, '"
         id="path26518" />
    </g>
  </g>
</svg>
